<svg width="21" height="21" viewBox="0 0 21 21" fill="none" xmlns="http://www.w3.org/2000/svg" style="fill: rgb(0, 0, 0);">
						<path d="M15.0938 15.0938H5.72727L3.43888 2.50761C3.41139 2.3564 3.3317 2.21964 3.21371 2.12116C3.09572 2.02269 2.9469 1.96875 2.79322 1.96875H1.3125" stroke="black" stroke-linecap="round" stroke-linejoin="round" style="fill: none;"></path>
						<path d="M6.5625 18.375C7.46859 18.375 8.20312 17.6405 8.20312 16.7344C8.20312 15.8283 7.46859 15.0938 6.5625 15.0938C5.65641 15.0938 4.92188 15.8283 4.92188 16.7344C4.92188 17.6405 5.65641 18.375 6.5625 18.375Z" stroke="black" stroke-linecap="round" stroke-linejoin="round" style="fill: none;"></path>
						<path d="M15.0938 18.375C15.9998 18.375 16.7344 17.6405 16.7344 16.7344C16.7344 15.8283 15.9998 15.0938 15.0938 15.0938C14.1877 15.0938 13.4531 15.8283 13.4531 16.7344C13.4531 17.6405 14.1877 18.375 15.0938 18.375Z" stroke="black" stroke-linecap="round" stroke-linejoin="round" style="fill: none;"></path>
						<path d="M5.13068 11.8125H15.4302C15.7376 11.8125 16.0352 11.7046 16.2712 11.5077C16.5072 11.3107 16.6665 11.0372 16.7215 10.7348L17.7188 5.25H3.9375" stroke="black" stroke-linecap="round" stroke-linejoin="round" style="fill: none;"></path>
					</svg>