<svg xmlns="http://www.w3.org/2000/svg" x="0px" y="0px" width="20" height="20" viewBox="0 0 40 40" style="fill: rgb(0, 0, 0);">
	<g fill="none" fill-rule="nonzero" stroke="none" stroke-width="1" stroke-linecap="butt" stroke-linejoin="miter" stroke-miterlimit="10" stroke-dasharray="" stroke-dashoffset="0" font-family="none" font-weight="none" font-size="none" text-anchor="none" style="mix-blend-mode: normal;">
		<g fill="#000000">
			<path class="st0" d="M0,2.9c0.3-0.3,0.6-0.4,1-0.4c0.6,0.1,1.2,0.1,1.8,0.1c1.8,0.1,3.6,0.2,5.4,0.3c2,0.1,4.1,0.2,6.1,0.3
	c2,0.1,4,0.2,5.9,0.3c0.2,0,0.4,0.1,0.6,0.2c2.2,1.3,4.4,2.7,6.6,4c4,2.4,8,4.9,12,7.3c0.4,0.3,0.6,0.6,0.6,1
	c-0.1,2.3-0.1,4.6-0.2,6.8c0,0.4,0,0.9,0,1.3c0,0.4-0.1,0.6-0.5,0.9c-6.2,4.1-12.3,8.1-18.5,12.2c-0.1,0.1-0.2,0.1-0.4,0.2
	c-0.2-0.1-0.4-0.2-0.6-0.3c-5.3-3.5-10.7-7-16-10.6C3,26.1,2.2,25.5,1.4,25c-0.3-0.2-0.4-0.4-0.5-0.8c0-1.7-0.1-3.4-0.1-5.1
	c0-1.1,0-2.1-0.1-3.2c0-0.5,0.1-0.8,0.6-1.1c1.2-0.7,2.4-1.5,3.6-2.3c0.1-0.1,0.2-0.1,0.4-0.2c-0.1-0.1-0.2-0.1-0.3-0.2
	c-1.5-1-3.1-1.9-4.6-2.9C0.2,9.2,0.1,9.1,0,9C0,7,0,4.9,0,2.9z M3.1,3.9C3.3,4,3.4,4.1,3.5,4.1c1,0.7,2.1,1.3,3.1,2
	c4.3,2.7,8.5,5.5,12.8,8.2c0.2,0.1,0.4,0.2,0.6,0.2c2.1,0,4.2,0.1,6.3,0.1c1.7,0,3.4,0.1,5.1,0.1c1.4,0,2.7,0.1,4.1,0.1
	c0.5,0,1,0,1.5,0c-0.1-0.1-0.2-0.1-0.3-0.2C31.3,11.4,25.9,8.2,20.4,5c-0.2-0.1-0.4-0.2-0.6-0.2c-0.4,0-0.8,0-1.1,0
	c-1.7-0.1-3.3-0.2-5-0.3c-1.2-0.1-2.4-0.1-3.6-0.2C8,4.1,5.9,4,3.7,3.9C3.6,3.9,3.4,3.9,3.1,3.9z M19.7,27.8
	c-5.9-3.7-11.8-7.3-17.8-11c0.1,2.4,0.1,4.8,0.2,7.1c1.6,1.2,17.3,11.5,17.6,11.7C19.7,33,19.7,30.5,19.7,27.8z M38.8,16.8
	c-6,3.7-11.9,7.4-17.8,11c-0.1,0.8,0,7.5,0,7.8c5.9-3.9,11.7-7.8,17.5-11.7C38.7,21.6,38.7,19.2,38.8,16.8z M30.6,20.5
	C30.6,20.5,30.6,20.5,30.6,20.5c-0.2-0.1-0.3-0.1-0.4-0.1c-2.6,0-5.2,0-7.8,0c-0.1,0-0.3,0-0.4,0c-0.4,0-0.6-0.2-0.8-0.5
	c-0.5-1.1-1.1-2.2-1.7-3.3c-0.1-0.1-0.1-0.2-0.2-0.3c-0.1,0.1-0.2,0.2-0.3,0.2c-0.5,0.5-1,1-1.6,1.5c-0.2,0.2-0.5,0.5-0.7,0.7
	c-0.3,0.3-0.5,0.3-0.9,0.1c-0.1-0.1-0.2-0.1-0.3-0.2c-1.2-0.8-2.4-1.5-3.7-2.3c-0.1-0.1-0.2-0.1-0.4-0.2c-1.3,0.9-2.6,1.7-3.9,2.6
	c4.3,2.7,8.5,5.3,12.8,7.9C23.8,24.6,27.2,22.6,30.6,20.5z M18.4,15.3C12.7,11.6,7,8,1.3,4.3c0,1.4,0,2.7,0,4.1c4.9,3,9.9,6,14.8,9
	C16.9,16.7,17.6,16,18.4,15.3z M22.2,19c0.1,0,0.1,0,0.2,0c3.4,0,6.8,0,10.3,0c0.1,0,0.3-0.1,0.4-0.1c1.3-0.8,2.7-1.7,4-2.5
	c0.1,0,0.1-0.1,0.2-0.2c-5.6-0.1-11.2-0.3-16.8-0.4C21.1,16.9,21.6,17.9,22.2,19z M6.5,13c-1.3,0.9-2.6,1.7-3.9,2.6
	c1.3,0.8,2.6,1.6,3.9,2.4c1.3-0.9,2.6-1.7,3.8-2.6C9,14.6,7.7,13.8,6.5,13z"></path>
		</g>
	</g>
</svg>