<svg xmlns="http://www.w3.org/2000/svg" x="0px" y="0px" width="20" height="20" viewBox="0 0 172 172" style="fill: rgb(0, 0, 0);">
	<g fill="none" fill-rule="nonzero" stroke="none" stroke-width="1" stroke-linecap="butt" stroke-linejoin="miter" stroke-miterlimit="10" stroke-dasharray="" stroke-dashoffset="0" font-family="none" font-weight="none" font-size="none" text-anchor="none" style="mix-blend-mode: normal;">
		<g fill="#000000">
			<path d="M137.69406,10.32c-0.99585,-0.02611 -1.95413,0.38073 -2.62703,1.11531c0,0 -2.77383,3.01288 -5.52281,7.28984c-2.74899,4.27696 -5.70422,9.86255 -5.70422,15.90328c-0.00028,0.96962 0.0603,1.89466 0.15453,2.795c-4.15426,-2.14609 -7.44438,-2.93609 -7.44438,-2.93609c-0.22493,-0.05204 -0.45452,-0.0813 -0.68531,-0.08735c-1.1445,-0.02707 -2.22749,0.51694 -2.88906,1.45125c-2.18062,3.07082 -2.92948,7.08464 -2.89578,11.40844c0.0323,4.14237 0.94601,8.54941 3.16453,12.34235c-0.09628,0.1041 -0.18604,0.21405 -0.26875,0.32922c-2.18062,3.07082 -2.92948,7.08464 -2.89578,11.40844c0.0323,4.14237 0.94601,8.54941 3.16453,12.34235c-0.09628,0.1041 -0.18604,0.21405 -0.26875,0.32922c-2.18062,3.07082 -2.92948,7.08464 -2.89578,11.40844c0.0323,4.14237 0.94601,8.54941 3.16453,12.34235c-0.09628,0.1041 -0.18604,0.21405 -0.26875,0.32922c-2.18062,3.07082 -2.92948,7.08464 -2.89578,11.40844c0.03371,4.3238 0.98718,8.95334 3.42656,12.85297h-0.00672c2.89719,4.63388 7.13998,7.6067 11.01203,9.46c3.86903,1.85177 7.10918,2.66601 9.64141,2.66735v13.76c-0.01754,1.24059 0.63425,2.39452 1.7058,3.01993c1.07155,0.62541 2.39684,0.62541 3.46839,0c1.07155,-0.62541 1.72335,-1.77935 1.7058,-3.01993v-13.76c0.00224,0 0.00448,0 0.00672,0c2.53315,0 5.77607,-0.81405 9.64813,-2.66735c3.87204,-1.8533 8.11484,-4.82612 11.01203,-9.46h-0.00672c2.43955,-3.89963 3.39287,-8.52917 3.42656,-12.85297c0.03371,-4.32379 -0.71517,-8.33762 -2.89578,-11.40844c-0.08271,-0.11517 -0.17247,-0.22512 -0.26875,-0.32922c2.21866,-3.79293 3.13225,-8.19997 3.16453,-12.34235c0.03371,-4.32379 -0.71517,-8.33762 -2.89578,-11.40844c-0.08271,-0.11517 -0.17247,-0.22512 -0.26875,-0.32922c2.21866,-3.79293 3.13225,-8.19997 3.16453,-12.34235c0.03371,-4.32379 -0.71517,-8.33762 -2.89578,-11.40844c-0.08271,-0.11517 -0.17247,-0.22512 -0.26875,-0.32922c2.21866,-3.79293 3.13225,-8.19997 3.16453,-12.34235c0.03371,-4.32379 -0.71517,-8.33762 -2.89578,-11.40844c-0.80762,-1.14152 -2.22583,-1.68065 -3.58781,-1.3639c0,0 -3.28943,0.80394 -7.44437,2.95625c0.09863,-0.90994 0.16797,-1.84231 0.16797,-2.82188c0.00216,-6.04034 -2.9547,-11.61994 -5.70422,-15.89656c-2.74952,-4.27662 -5.52281,-7.28984 -5.52281,-7.28984c-0.62863,-0.68637 -1.50854,-1.08876 -2.4389,-1.11531zM137.6,19.44406c0.8799,1.10733 1.13212,1.23196 2.27094,3.00328c2.41134,3.75062 4.61034,8.59647 4.60906,12.17437c0,5.09368 -1.77866,8.47445 -3.67515,10.69625c-0.94825,1.1109 -1.93779,1.91606 -2.6875,2.39188c-0.203,0.12884 -0.3449,0.15595 -0.53078,0.22172c-0.18642,-0.0646 -0.33123,-0.09115 -0.53078,-0.215c-0.74602,-0.46288 -1.73157,-1.24402 -2.67406,-2.33813c-1.88499,-2.18822 -3.6632,-5.55502 -3.66172,-10.75c0,-3.58095 2.20477,-8.42996 4.61578,-12.18109c1.13801,-1.77056 1.38476,-1.89605 2.26422,-3.00328zM118.02828,42.36172c2.82425,0.99287 7.33013,2.9572 11.11281,7.46453c0.0099,0.01154 0.01697,0.02881 0.02687,0.04031c0.00443,0.00514 0.00901,0.0083 0.01344,0.01344c0.36775,0.44071 0.73692,0.87279 1.08844,1.3639c1.36882,2.96388 2.41002,6.52031 2.64047,9.46672c0.17386,2.22273 -0.3484,3.12805 -0.75922,4.0514c-1.28571,-0.25088 -2.55012,-0.37636 -4.66953,-1.39078c-3.03117,-1.45082 -6.1624,-3.73883 -8.14313,-6.90688c-1.52005,-2.42997 -2.35279,-5.96865 -2.37844,-9.25844c-0.01686,-2.16029 0.59025,-3.39277 1.06828,-4.84422zM157.17844,42.37515c0.47609,1.45073 1.07835,2.67684 1.06156,4.83078c-0.0258,3.28979 -0.85838,6.82847 -2.37844,9.25844c-1.98073,3.16805 -5.11195,5.45605 -8.14313,6.90688c-2.12585,1.0175 -3.39891,1.1478 -4.68297,1.3975c-0.42208,-0.92586 -0.95067,-1.83467 -0.79281,-4.03797c0.20915,-2.91917 1.22298,-6.44444 2.58672,-9.39953c3.98548,-5.56761 9.21456,-7.84247 12.34906,-8.9561zM118.02828,66.44172c3.1098,1.09325 8.26606,3.32785 12.24156,8.88219c1.36882,2.96388 2.41002,6.52031 2.64047,9.46672c0.17386,2.22273 -0.3484,3.12805 -0.75922,4.0514c-1.28571,-0.25088 -2.55012,-0.37636 -4.66953,-1.39078c-3.03117,-1.45082 -6.1624,-3.73883 -8.14313,-6.90688c-1.52005,-2.42997 -2.35279,-5.96865 -2.37844,-9.25844c-0.01686,-2.16029 0.59025,-3.39277 1.06828,-4.84422zM157.17844,66.45515c0.47609,1.45073 1.07835,2.67684 1.06156,4.83078c-0.0258,3.28979 -0.85838,6.82847 -2.37844,9.25844c-1.98073,3.16805 -5.11195,5.45605 -8.14313,6.90688c-2.12585,1.0175 -3.39891,1.1478 -4.68297,1.3975c-0.42208,-0.92586 -0.95067,-1.83467 -0.79281,-4.03797c0.20915,-2.91917 1.22298,-6.44444 2.58672,-9.39953c3.98548,-5.56761 9.21456,-7.84247 12.34906,-8.9561zM86.00672,75.68672c-4.76086,-0.09904 -9.99831,2.2437 -14.16985,6.29547c-2.60008,-1.41199 -5.8426,-2.85547 -9.97734,-2.85547c-7.67653,0 -14.70756,3.32874 -19.0275,7.33688c-3.95894,1.41414 -12.23227,4.83083 -20.06219,11.05234c-8.22923,6.5388 -15.94359,16.41031 -15.94359,29.76406c0,7.76931 3.19146,14.24373 8.31109,18.98047c5.11964,4.73674 12.00903,7.90573 19.80687,10.15203c15.5957,4.49261 35.04466,5.30062 52.31219,5.26078c12.07164,-0.0313 25.15157,-0.47511 37.11438,-2.34485c1.24994,-0.15028 2.31797,-0.97129 2.78461,-2.14055c0.46664,-1.16926 0.25735,-2.50003 -0.54567,-3.46962c-0.80301,-0.96959 -2.07149,-1.42313 -3.30722,-1.18249c-11.36727,1.77666 -24.14749,2.22675 -36.05953,2.2575c-17.02583,0.03928 -36.0695,-0.86658 -50.39062,-4.99203c-7.16056,-2.06272 -13.08291,-4.92658 -17.03875,-8.58656c-3.95584,-3.65998 -6.10734,-7.944 -6.10734,-13.93469c0,-10.72625 6.07805,-18.60267 13.34344,-24.37563c6.56523,-5.21662 13.806,-8.35574 17.48891,-9.72875c3.70548,1.86105 7.29594,5.95956 9.82281,9.93031c2.7746,4.36002 4.29328,8.23047 4.29328,8.23047c0.4152,1.18923 1.44711,2.05647 2.69005,2.26078c1.24294,0.20431 2.49817,-0.28698 3.27219,-1.28072c0.77403,-0.99374 0.94309,-2.33104 0.44072,-3.48615c0,0 -1.73442,-4.45231 -4.89125,-9.41297c-2.23275,-3.50857 -5.50994,-7.01438 -9.36594,-9.87656c3.14818,-1.86206 7.0344,-3.53406 11.05906,-3.53406c3.08575,0 6.15402,1.51558 8.41187,2.89578c12.64874,9.58582 15.76891,22.01735 15.76891,22.01735c0.272,1.22092 1.18523,2.198 2.38501,2.55177c1.19978,0.35377 2.49703,0.02848 3.38793,-0.84954c0.8909,-0.87802 1.23505,-2.1704 0.89878,-3.3752c0,0 -3.57375,-12.45914 -15.39266,-23.04531c2.75624,-2.21556 6.10961,-3.69312 8.54625,-3.64156c4.29019,0.08982 8.79905,3.23934 11.38828,5.85875c0.84943,0.93539 2.14325,1.32989 3.37006,1.02757c1.22682,-0.30232 2.1892,-1.2528 2.50675,-2.47576c0.31756,-1.22296 -0.06082,-2.52159 -0.98557,-3.38259c-3.31273,-3.35134 -8.92194,-7.74754 -16.13172,-7.90125zM118.02828,90.52172c3.1098,1.09325 8.26606,3.32785 12.24156,8.88219c1.36882,2.96388 2.41002,6.52031 2.64047,9.46672c0.17386,2.22273 -0.3484,3.12805 -0.75922,4.0514c-1.28571,-0.25088 -2.55012,-0.37636 -4.66953,-1.39078c-3.03117,-1.45082 -6.1624,-3.73883 -8.14313,-6.90688c-1.52005,-2.42997 -2.35279,-5.96865 -2.37844,-9.25844c-0.01686,-2.16029 0.59025,-3.39277 1.06828,-4.84422zM157.17844,90.53515c0.47609,1.45073 1.07835,2.67684 1.06156,4.83078c-0.0258,3.28979 -0.85838,6.82847 -2.37844,9.25844c-1.98073,3.16805 -5.11195,5.45605 -8.14313,6.90688c-2.12585,1.0175 -3.39891,1.1478 -4.68297,1.3975c-0.42208,-0.92586 -0.95067,-1.83467 -0.79281,-4.03797c0.20915,-2.91917 1.22298,-6.44444 2.58672,-9.39953c3.98548,-5.56761 9.21456,-7.84247 12.34906,-8.9561zM118.02828,114.60172c3.1098,1.09325 8.26606,3.32785 12.24156,8.88219c1.36882,2.96388 2.41002,6.52031 2.64047,9.46672c0.17386,2.22273 -0.3484,3.12805 -0.75922,4.0514c-1.28571,-0.25088 -2.55012,-0.37636 -4.66953,-1.39078c-3.03117,-1.45082 -6.1624,-3.73883 -8.14313,-6.90688c-1.52005,-2.42997 -2.35279,-5.96865 -2.37844,-9.25844c-0.01686,-2.16029 0.59025,-3.39277 1.06828,-4.84422zM157.17844,114.61515c0.47609,1.45073 1.07835,2.67684 1.06156,4.83078c-0.0258,3.28979 -0.85838,6.82847 -2.37844,9.25844c-1.98073,3.16805 -5.11195,5.45605 -8.14313,6.90688c-2.12585,1.0175 -3.39891,1.1478 -4.68297,1.3975c-0.42208,-0.92586 -0.95067,-1.83467 -0.79281,-4.03797c0.20915,-2.91917 1.22298,-6.44444 2.58672,-9.39953c3.98548,-5.56761 9.21456,-7.84247 12.34906,-8.9561z">
			</path>
		</g>
	</g>
</svg>