<svg xmlns="http://www.w3.org/2000/svg" x="0px" y="0px" width="20" height="20" viewBox="0 0 40 40" style="fill: rgb(0, 0, 0);">
	<g fill="none" fill-rule="nonzero" stroke="none" stroke-width="1" stroke-linecap="butt" stroke-linejoin="miter" stroke-miterlimit="10" stroke-dasharray="" stroke-dashoffset="0" font-family="none" font-weight="none" font-size="none" text-anchor="none" style="mix-blend-mode: normal;">
		<g fill="#000000">
			<path class="st0" d="M24.8,0c0.2,0,0.4,0.1,0.6,0.1C28.1,0.8,30,3.1,30,5.8c0,1.6,0,3.2,0,4.8c0,0.6-0.2,0.9-0.8,1.1
			c0,0.7,0,1.3,0,2c0.5,0.3,1,0.6,1.5,1c1.5,0.9,2.4,2.2,3,3.8c0.5,1.4,0.7,2.8,0.9,4.2c0.3,2.2,0.4,4.5,0.4,6.8c0,2.3,0,4.7,0,7
			c0,1.1-0.4,2.1-1.3,2.8c-0.6,0.5-1.4,0.7-2.2,0.7c-3.7,0-7.5,0-11.2,0c-0.3,0-0.5,0-0.8-0.1c-1.4-0.2-2.6-1.5-2.7-2.9
			c0-0.3-0.1-0.7-0.1-1c0-2.7,0-5.5,0.1-8.2c0.1-2.5,0.3-5,0.9-7.5c0.4-1.5,0.9-2.9,1.9-4.1c0.5-0.7,1.2-1.2,1.9-1.8
			c0.3-0.3,0.7-0.5,1.1-0.7c0-0.7,0-1.3,0-2c-0.7-0.2-0.8-0.5-0.8-1.2c0-0.4,0-0.8,0-1.3c-0.2,0.1-0.3,0.2-0.4,0.3
			c-1.6,1.2-3.1,2.3-4.7,3.5c-0.3,0.2-0.6,0.4-1,0.3c-0.4,0-0.8,0-1.2,0c-0.8,0-1.2-0.7-0.7-1.4c0.7-1.1,1.4-2.1,2.1-3.1
			c0.1-0.1,0.2-0.2,0.3-0.4c-0.3,0-0.5,0-0.8,0c-0.7,0-1.2-0.3-1.6-0.9c-0.1-0.2-0.2-0.5-0.3-0.8c-0.1,0-0.2,0-0.4,0
			c-0.5,0-0.9,0-1.4,0C10.7,6.6,10,5.9,10,5.1c0-0.6,0-1.2,0-1.9c0-0.8,0.6-1.4,1.4-1.5c0.2,0,0.5,0,0.7,0c0.4,0,0.8,0,1.2,0
			c0-0.1,0-0.2,0.1-0.2c0.1-0.6,0.4-1,1-1.3c0.1,0,0.2-0.1,0.3-0.1C18,0,21.4,0,24.8,0z M33.1,24.9c0-0.3-0.1-0.6-0.1-0.9
			c-0.1-1.3-0.3-2.7-0.6-4c-0.5-1.9-1.4-3.4-3.2-4.3c-0.4-0.2-0.8-0.5-1.2-0.8c-0.3-0.2-0.5-0.5-0.5-0.9c0-0.3,0-0.7,0-1
			c0-0.4,0-0.9,0-1.3c-1.1,0-2.2,0-3.3,0c0,0.1,0,0.2,0,0.3c0,0.6,0,1.2,0,1.9c0,0.5-0.1,0.8-0.6,1.1c-0.3,0.2-0.6,0.4-1,0.7
			c-1.5,1-2.5,2.3-3,4c-0.4,1.2-0.7,2.5-0.8,3.7c-0.1,0.5-0.1,1-0.2,1.6C23.4,24.9,28.2,24.9,33.1,24.9z M18.4,26.6
			c0,2.2-0.1,4.4-0.1,6.6c5,0,10,0,15,0c0-2.2,0-4.4-0.1-6.6C28.3,26.6,23.4,26.6,18.4,26.6z M28.3,10c0-0.1,0-0.1,0-0.2
			c0-1.3,0-2.7,0-4c0-1.3-0.5-2.3-1.5-3.1C26,2,25,1.7,24,1.7c-2.8,0-5.7,0-8.5,0c-0.1,0-0.3,0-0.4,0c0,1.7,0,3.3,0,5
			c0.2,0,0.3,0,0.5,0c2.2,0,4.4,0,6.7,0c0.8,0,1.1,0.3,1.1,1.2c0,0.6,0,1.2,0,1.8c0,0.1,0,0.2,0,0.3C25,10,26.6,10,28.3,10z M33.3,35
			c-5,0-9.9,0-14.9,0c0,0.6,0,1.2,0,1.9c0,0.7,0.6,1.3,1.3,1.4c0.2,0,0.4,0,0.6,0c3.7,0,7.4,0,11.1,0c0.2,0,0.4,0,0.5,0
			c0.7-0.1,1.3-0.6,1.4-1.4C33.3,36.3,33.3,35.6,33.3,35z M19.9,8.4c-0.7,0-1.4,0-2,0c-0.6,0.9-1.2,1.9-1.9,2.8c0,0,0,0,0.1,0.1
			C17.4,10.3,18.6,9.3,19.9,8.4z M11.7,3.4c0,0.6,0,1.1,0,1.6c0.5,0,1.1,0,1.6,0c0-0.5,0-1.1,0-1.6C12.8,3.4,12.3,3.4,11.7,3.4z"></path>
			<path class="st0" d="M6.9,0C7.5,0.3,8,0.6,8.6,0.8C8.9,1,9.2,1.2,9.2,1.6c0,0.6-0.5,1-1.1,0.8C7.5,2.2,6.8,1.9,6.3,1.5
			c-0.6-0.3-0.5-1,0-1.4C6.3,0.1,6.4,0,6.4,0C6.6,0,6.7,0,6.9,0z"></path>
			<path class="st0" d="M5.9,7.4c0-0.3,0.2-0.5,0.5-0.7C6.9,6.5,7.4,6.2,8,5.9c0.5-0.2,0.9,0,1.1,0.4c0.2,0.4,0,0.9-0.4,1.1
			C8.2,7.7,7.6,8,7,8.2C6.4,8.5,5.9,8.1,5.9,7.4z"></path>
			<path class="st0" d="M6.7,5C6.4,5,6.2,5,5.9,5C5.4,5,5,4.6,5,4.2c0-0.5,0.3-0.8,0.8-0.8c0.6,0,1.1,0,1.7,0c0.5,0,0.8,0.4,0.8,0.8
			C8.3,4.6,8,5,7.5,5C7.2,5,7,5,6.7,5C6.7,5,6.7,5,6.7,5z"></path>
		</g>
	</g>
</svg>