<svg xmlns="http://www.w3.org/2000/svg" x="0px" y="0px" width="20" height="20" viewBox="0 0 172 172" style="fill: rgb(0, 0, 0);">
	<g fill="none" fill-rule="nonzero" stroke="none" stroke-width="1" stroke-linecap="butt" stroke-linejoin="miter" stroke-miterlimit="10" stroke-dasharray="" stroke-dashoffset="0" font-family="none" font-weight="none" font-size="none" text-anchor="none" style="mix-blend-mode: normal;">
		<g fill="#000000">
			<path d="M74.2825,0c-1.19594,0 -1.85437,0.3225 -2.6875,0.645c-0.83312,0.3225 -1.76031,0.72563 -2.795,1.29c-2.08281,1.14219 -4.54187,2.74125 -7.4175,5.0525c-1.22281,0.98094 -2.55312,2.12313 -3.87,3.3325c-0.28219,-0.04031 -0.57781,-0.04031 -0.86,0c-0.1075,0.02688 -0.215,0.06719 -0.3225,0.1075c0,0 -8.07594,1.69313 -15.91,5.59c-3.92375,1.94844 -7.86094,4.46125 -10.75,7.8475c-2.86219,3.37281 -4.60906,8.0625 -3.44,13.0075c0,0.02688 0,0.08063 0,0.1075c0.7525,3.35938 2.92938,10.6425 4.3,15.695c-12.48344,7.47125 -21.97031,25.37 -26.015,48.59c-0.60469,3.95063 -0.01344,8.54625 1.8275,13.4375c-0.83312,2.365 -2.9025,9.11063 -2.9025,17.7375c0,6.00656 2.66063,11.66375 7.095,16.4475c4.43438,4.78375 10.60219,8.85531 18.06,12.255c14.91563,6.81281 35.13906,10.8575 57.405,10.8575c22.26594,0 42.48938,-4.04469 57.405,-10.8575c7.45781,-3.39969 13.62563,-7.47125 18.06,-12.255c4.43438,-4.78375 7.095,-10.44094 7.095,-16.4475c0,-1.26312 -0.14781,-4.55531 -0.86,-9.245c-0.65844,-4.31344 -1.81406,-9.51375 -3.7625,-14.2975c1.08844,-3.85656 1.38406,-7.94156 0.43,-12.255c-1.3975,-6.65156 -7.06812,-29.24 -22.6825,-43.215c2.06938,-4.91812 3.80281,-10.33344 5.16,-16.125h-0.1075c1.81406,-7.04125 -2.0425,-14.04219 -8.2775,-18.92c-6.08719,-4.77031 -14.68719,-7.92812 -24.295,-8.0625c-3.48031,-2.15 -7.02781,-3.44 -10.32,-3.44c-2.92937,0 -5.01219,1.04813 -6.9875,1.6125c-1.935,0.56438 -3.64156,0.79281 -5.6975,0.215c-0.02687,-0.01344 -0.08062,0.01344 -0.1075,0c-2.75469,-0.84656 -5.88562,-2.78156 -8.6,-4.6225c-1.37062,-0.92719 -2.66062,-1.84094 -3.87,-2.58c-1.20937,-0.73906 -2.13656,-1.505 -4.3,-1.505zM73.96,6.9875c-0.05375,-0.01344 0.12094,0.01344 0.1075,0c0.215,0.06719 0.55094,0.17469 0.9675,0.43c0.90031,0.55094 2.12313,1.3975 3.5475,2.365c2.84875,1.935 6.42313,4.35375 10.535,5.59c3.73563,1.10188 7.06813,0.51063 9.5675,-0.215c2.49938,-0.72562 4.31344,-1.3975 5.16,-1.3975c1.69313,0 6.54406,1.81406 10.6425,5.375c3.95063,3.44 7.45781,8.26406 8.9225,13.975c-1.03469,3.18469 -4.21937,6.57094 -9.7825,9.3525c-6.85312,3.42656 -16.74312,5.6975 -27.6275,5.6975c-10.88437,0 -20.77437,-2.27094 -27.6275,-5.6975c-6.19469,-3.10406 -9.51375,-6.92031 -10.105,-10.4275c3.29219,-4.90469 6.51719,-9.08375 9.675,-12.47c0.20156,-0.16125 0.37625,-0.33594 0.5375,-0.5375c2.53969,-2.67406 5.02563,-4.91812 7.2025,-6.665c2.59344,-2.08281 4.79719,-3.50719 6.45,-4.4075c0.79281,-0.43 1.38406,-0.79281 1.8275,-0.9675zM72.24,17.2c-1.89469,0 -3.44,1.54531 -3.44,3.44c0,1.89469 1.54531,3.44 3.44,3.44c1.89469,0 3.44,-1.54531 3.44,-3.44c0,-1.89469 -1.54531,-3.44 -3.44,-3.44zM125.345,19.2425c3.48031,1.1825 6.51719,2.74125 8.9225,4.6225c4.86438,3.80281 6.73219,8.10281 5.805,11.7175v0.1075c-1.34375,5.6975 -2.98312,11.00531 -4.945,15.5875c-0.20156,0.49719 -0.52406,1.075 -0.86,1.6125c0,0.04031 0,0.06719 0,0.1075c-2.37844,3.77594 -7.79375,8.385 -15.3725,12.04c-8.72094,4.1925 -20.18312,7.2025 -32.895,7.2025c-12.7925,0 -24.57719,-2.52625 -33.325,-6.45c-8.74781,-3.92375 -14.10937,-9.245 -15.265,-13.975v-0.1075c-1.3975,-5.24062 -3.91031,-13.63906 -4.515,-16.34v-0.1075c-0.67187,-2.75469 0.12094,-4.73 2.0425,-6.9875c1.92156,-2.2575 5.0525,-4.31344 8.4925,-6.02c0.38969,-0.20156 0.77938,-0.34937 1.1825,-0.5375c-1.86781,2.48594 -3.02344,5.22719 -3.225,8.2775c0,0.04031 0,0.06719 0,0.1075c-0.18812,0.63156 -0.18812,1.30344 0,1.935c0.52406,7.04125 6.15438,12.69844 13.8675,16.555c8.10281,4.05813 18.92,6.45 30.745,6.45c11.825,0 22.64219,-2.39187 30.745,-6.45c6.40969,-3.19812 11.30094,-7.65937 13.115,-13.115c0.08063,-0.17469 0.16125,-0.34937 0.215,-0.5375c0.01344,-0.04031 0.09406,-0.06719 0.1075,-0.1075c0.24188,-0.49719 0.34938,-1.06156 0.3225,-1.6125c0.12094,-0.72562 0.215,-1.49156 0.215,-2.2575c0,-4.4075 -2.08281,-8.385 -5.375,-11.7175zM65.36,27.52c-1.89469,0 -3.44,1.54531 -3.44,3.44c0,1.89469 1.54531,3.44 3.44,3.44c1.89469,0 3.44,-1.54531 3.44,-3.44c0,-1.89469 -1.54531,-3.44 -3.44,-3.44zM79.12,27.52c-1.89469,0 -3.44,1.54531 -3.44,3.44c0,1.89469 1.54531,3.44 3.44,3.44c1.89469,0 3.44,-1.54531 3.44,-3.44c0,-1.89469 -1.54531,-3.44 -3.44,-3.44zM33.2175,59.125c3.35938,5.29438 9.31219,9.60781 16.6625,12.9c9.83625,4.42094 22.42719,7.095 36.12,7.095c13.77344,0 26.21656,-3.18469 35.905,-7.8475c6.93375,-3.3325 12.47,-7.36375 16.125,-11.825c12.67156,12.20125 18.35563,32.82781 19.565,38.5925c0.71219,3.25188 0.5375,6.38281 -0.3225,9.3525c-0.24187,0.43 -0.38969,0.90031 -0.43,1.3975c-1.16906,3.18469 -3.13094,6.18125 -5.59,9.03c-5.07937,5.87219 -12.24156,10.70969 -17.9525,13.6525c-1.14219,0.52406 -1.92156,1.63938 -2.00219,2.9025c-0.08063,1.24969 0.5375,2.45906 1.59906,3.13094c1.075,0.67188 2.41875,0.71219 3.52062,0.09406c6.32906,-3.25187 14.06906,-8.41187 19.995,-15.265c1.14219,-1.31687 2.24406,-2.72781 3.225,-4.1925c0.49719,2.10969 0.88688,4.21938 1.1825,6.1275c0.65844,4.34031 0.86,8.04906 0.86,8.17c0,3.96406 -1.69312,7.86094 -5.2675,11.7175c-3.57437,3.85656 -9.05687,7.51156 -15.91,10.6425c-13.71969,6.26188 -33.08312,10.32 -54.5025,10.32c-21.41937,0 -40.78281,-4.05812 -54.5025,-10.32c-6.85312,-3.13094 -12.33562,-6.78594 -15.91,-10.6425c-3.57437,-3.85656 -5.2675,-7.75344 -5.2675,-11.7175c0,-3.27875 0.40313,-6.10062 0.86,-8.6c4.20594,6.27531 10.37375,12.77906 18.8125,18.92c0.95406,0.99438 2.40531,1.31688 3.69531,0.83313c1.29,-0.48375 2.16344,-1.69313 2.21719,-3.06375c0.06719,-1.37063 -0.69875,-2.64719 -1.935,-3.25188c-18.15406,-13.20906 -23.66344,-28.0575 -22.6825,-34.83c0,-0.02687 0,-0.08062 0,-0.1075c3.70875,-21.1775 12.75219,-36.96656 21.93,-43.215zM137.815,69.7675c-1.23625,0.20156 -2.27094,1.075 -2.6875,2.2575c-1.69312,4.15219 -7.525,9.74219 -16.2325,13.975c-8.7075,4.23281 -20.18312,7.2025 -32.895,7.2025c-1.23625,-0.01344 -2.39187,0.63156 -3.02344,1.70656c-0.61813,1.075 -0.61813,2.39187 0,3.46687c0.63156,1.075 1.78719,1.72 3.02344,1.70656c13.77344,0 26.21656,-3.13094 35.905,-7.8475c9.68844,-4.71656 16.78344,-10.77687 19.565,-17.63c0.52406,-1.15562 0.38969,-2.49937 -0.37625,-3.50719c-0.76594,-1.02125 -2.02906,-1.53188 -3.27875,-1.33031z">
			</path>
		</g>
	</g>
</svg>