<svg width="22" height="22" viewBox="0 0 22 22" fill="none" xmlns="http://www.w3.org/2000/svg">
	<path d="M11 6.875V11" stroke="black" stroke-linecap="round" stroke-linejoin="round"></path>
	<path d="M14.5724 13.0625L11 11" stroke="black" stroke-linecap="round" stroke-linejoin="round"></path>
	<path d="M15.8269 8.56934H19.2644V5.13184" stroke="black" stroke-linecap="round" stroke-linejoin="round"></path>
	<path d="M16.3475 16.3475C15.2899 17.4051 13.9424 18.1254 12.4754 18.4172C11.0084 18.709 9.48782 18.5592 8.10596 17.9868C6.72409 17.4145 5.54299 16.4451 4.71201 15.2015C3.88103 13.9579 3.4375 12.4957 3.4375 11C3.4375 9.50428 3.88103 8.04215 4.71201 6.7985C5.54299 5.55486 6.72409 4.58555 8.10596 4.01316C9.48782 3.44078 11.0084 3.29101 12.4754 3.58281C13.9424 3.87462 15.2899 4.59487 16.3475 5.65251L19.2643 8.56932" stroke="black" stroke-linecap="round" stroke-linejoin="round"></path>
</svg>