<svg xmlns="http://www.w3.org/2000/svg" x="0px" y="0px" width="20" height="20" viewBox="0 0 172 172" style="fill: rgb(0, 0, 0);">
	<g fill="none" fill-rule="nonzero" stroke="none" stroke-width="1" stroke-linecap="butt" stroke-linejoin="miter" stroke-miterlimit="10" stroke-dasharray="" stroke-dashoffset="0" font-family="none" font-weight="none" font-size="none" text-anchor="none" style="mix-blend-mode: normal;">
		<g fill="#000000">
			<path d="M89.44,6.88c-7.13219,0 -12.89914,3.74271 -16.7364,9.21813c-3.83727,5.47542 -6.14956,12.61946 -7.70641,20.5325c-1.15335,5.86217 -1.85612,12.1452 -2.30453,18.46984c-0.25743,-0.01937 -0.51134,-0.06047 -0.77265,-0.06047h-3.44v-10.32c-0.00019,-1.89978 -1.54022,-3.43981 -3.44,-3.44v-10.32c-0.00019,-1.89978 -1.54022,-3.43981 -3.44,-3.44h-13.76c-1.45122,0.00363 -2.7441,0.91752 -3.23172,2.28438c-0.67339,-0.20361 -0.64993,-0.21257 -1.41094,-0.43c-3.09321,-0.88377 -6.25068,-1.85438 -9.11734,-1.85438c-5.59115,0 -9.22484,4.16562 -9.22484,4.16562c-1.38222,1.3043 -1.44539,3.48215 -0.14109,4.86438c1.3043,1.38222 3.48215,1.44539 4.86438,0.14109c0,0 3.21271,-2.2911 4.50156,-2.2911c0.57333,0 4.29587,0.74939 7.22266,1.58563c1.66358,0.4753 2.08408,0.63029 3.09734,0.95406v4.34031c-1.89978,0.00019 -3.43981,1.54022 -3.44,3.44v10.32h-3.44c-5.6587,0 -10.32,4.6613 -10.32,10.32v17.2h-3.44c-3.76836,0 -6.88,3.11163 -6.88,6.88v10.32c0,3.76837 3.11164,6.88 6.88,6.88h3.44v6.88c-0.00065,0.36984 0.05833,0.73737 0.17469,1.08844l12.19453,36.57016c1.39988,4.20479 5.35975,7.0614 9.78922,7.0614h93.28313c4.42946,0 8.39013,-2.85901 9.78922,-7.0614l12.19453,-36.57016c0.11635,-0.35106 0.17534,-0.71859 0.17469,-1.08844v-6.88h3.44c3.76837,0 6.88,-3.11163 6.88,-6.88v-10.32c0,-3.76837 -3.11163,-6.88 -6.88,-6.88h-3.71547c-0.987,-14.08488 -4.55227,-29.39997 -5.78485,-34.50078c1.53781,-0.37743 2.61941,-1.75577 2.62031,-3.33922v-10.32c0,-3.76014 -3.11986,-6.88 -6.88,-6.88h-32.94875c-1.68481,-5.26034 -3.88952,-9.96036 -7.05469,-13.61219c-3.70173,-4.27088 -8.89885,-7.02781 -15.03656,-7.02781zM89.44,13.76c4.22356,0 7.15592,1.56366 9.83625,4.65609c2.3144,2.67025 4.23963,6.6287 5.75797,11.36813c-1.12608,1.22806 -1.83422,2.84392 -1.83422,4.61578v10.32c0.00323,1.57898 1.08088,2.95306 2.6136,3.3325c-1.2299,5.09895 -4.79375,20.43529 -5.87219,34.5075h-31.12797c0.01961,-13.95479 0.23975,-30.92841 2.92938,-44.59906c1.45315,-7.38593 3.65586,-13.72389 6.59109,-17.91219c2.93523,-4.1883 6.19828,-6.28875 11.1061,-6.28875zM41.28,34.4h6.88v6.88h-6.88zM110.08,34.4h34.4v6.88c-1.05932,-0.00037 -2.05974,0.4873 -2.71201,1.32199c-0.65226,0.83469 -0.88364,1.92333 -0.62721,2.95114c0,0 5.20548,21.16761 6.45672,37.00687h-40.72906c1.35667,-15.85817 6.55078,-37.00688 6.55078,-37.00687c0.25642,-1.02781 0.02505,-2.11645 -0.62721,-2.95114c-0.65226,-0.83469 -1.65269,-1.32235 -2.71201,-1.32199zM96.32,37.83328l-19.63219,0.59125c-2.59032,3.10632 -0.11782,6.83716 6.7725,6.22828c6.89032,-0.60888 10.26937,-3.71321 12.85969,-6.81953zM38.38422,48.16h12.63797c0.19094,0.03191 0.38423,0.04764 0.57781,0.04703v6.83297h-13.76v-6.83297c0.18237,-0.00123 0.36435,-0.01695 0.54422,-0.04703zM96.32,58.47328l-19.63219,0.59125c-2.59032,3.10632 -0.11782,6.83716 6.7725,6.22828c6.89032,-0.60888 10.26937,-3.71321 12.85969,-6.81953zM27.52,61.92h6.30219c0.37149,0.0614 0.75054,0.0614 1.12203,0h19.51797c0.37149,0.0614 0.75054,0.0614 1.12203,0h6.33578c0.14311,0 0.26637,0.0444 0.40313,0.06047c-0.3099,7.15836 -0.3846,14.22114 -0.38969,20.57953h-37.85344v-17.2c0,-1.9437 1.4963,-3.44 3.44,-3.44zM13.76,89.44h6.30219c0.37149,0.0614 0.75054,0.0614 1.12203,0h81.8075c0.08731,0.00333 0.17472,0.00333 0.26203,0h47.32015c0.48473,0.10611 0.98668,0.10611 1.47141,0h6.19469v10.32h-6.88h-27.52h-13.76h-17.2h-13.76h-58.48h-3.44h-3.44zM24.08,106.64h20.64v27.52c0.00019,1.89978 1.54022,3.43981 3.44,3.44h13.76c1.89978,-0.00019 3.43981,-1.54022 3.44,-3.44v-27.52h10.32v27.52c0.00019,1.89978 1.54022,3.43981 3.44,3.44h13.76c1.89978,-0.00019 3.43981,-1.54022 3.44,-3.44v-27.52h10.32v27.52c0.00019,1.89978 1.54022,3.43981 3.44,3.44h13.76c1.89978,-0.00019 3.43981,-1.54022 3.44,-3.44v-27.52h20.64v6.32235l-12.01313,36.04609c-0.47227,1.41856 -1.7711,2.35156 -3.26531,2.35156h-93.28313c-1.49421,0 -2.79384,-0.9354 -3.26531,-2.35156l-12.01313,-36.04609zM51.6,106.64h6.88v24.08h-6.88zM82.56,106.64h6.88v24.08h-6.88zM113.52,106.64h6.88v24.08h-6.88z">
			</path>
		</g>
	</g>
</svg>