<?xml version="1.0" encoding="UTF-8"?><svg id="Warstwa_2" xmlns="http://www.w3.org/2000/svg" xmlns:xlink="http://www.w3.org/1999/xlink" viewBox="0 0 106.21 22.88"><defs><style>.cls-1{fill:url(#Gradient_bez_nazwy_372-2);}.cls-2{fill:url(#Gradient_bez_nazwy_372);}</style><linearGradient id="Gradient_bez_nazwy_372" x1="20.28" y1="3.66" x2="1.08" y2="20.53" gradientUnits="userSpaceOnUse"><stop offset="0" stop-color="#0b55f9"/><stop offset="1" stop-color="#c678ea"/></linearGradient><linearGradient id="Gradient_bez_nazwy_372-2" x1="23.99" y1="1.56" x2="4.79" y2="18.43" xlink:href="#Gradient_bez_nazwy_372"/></defs><g id="Warstwa_1-2"><path class="cls-2" d="m16.47,15.81s-.07.08-.11.12c-2.59,2.59-6.82,2.59-9.41,0s-2.59-6.82,0-9.41c.04-.04.08-.07.12-.11l-3.54-3.54s-.08.07-.12.11c-4.55,4.55-4.55,11.93,0,16.48,4.55,4.55,11.93,4.55,16.48,0,.04-.04.07-.08.11-.12l-3.54-3.54Z"/><path class="cls-1" d="m7.71,7.07s.07-.08.11-.12c2.59-2.59,6.82-2.59,9.41,0s2.59,6.82,0,9.41c-.04.04-.08.07-.12.11l3.54,3.54s.08-.07.12-.11c4.55-4.55,4.55-11.93,0-16.48C16.21-1.14,8.83-1.14,4.28,3.41c-.04.04-.07.08-.11.12l3.54,3.54Z"/><path d="m39.65,13.19h-7.16l-1.26,2.73h-3.66l6.62-13.39h4.22l6.62,13.39h-4.12l-1.26-2.73Zm-1.05-2.28l-2.53-5.46h-.02l-2.51,5.46h5.07Z"/><path d="m58.38,16.69c0,1.95-1.7,3.66-6.53,3.66-5.31,0-6.6-1.45-6.6-2.73,0-.96.67-1.69,2.2-1.75v-.02c-1-.53-1.11-1.34-1.11-1.77,0-.9.54-1.75,1.52-1.93v-.04c-1.35-.59-1.98-1.63-1.98-2.93,0-1.89,1.61-3.52,5.42-3.52,1.46,0,2.63.22,3.5.65l.02-.06c-.3-.24-.55-.59-.55-1.02,0-.73.7-1.42,2.48-1.42.52,0,.94.06,1.11.1v2.04c-.24-.04-.57-.06-.8-.06-.76,0-1.05.35-1.05.83,0,.2.06.41.13.63.39.51.59,1.14.59,1.83,0,1.97-1.66,3.52-5.42,3.52-.8,0-1.52-.06-2.13-.18-.09.14-.2.41-.2.69,0,.41.3.75,1.09.75h4.4c3.11,0,3.92,1.36,3.92,2.73Zm-3.29.49c0-.49-.33-.81-1.7-.81h-3.24c-1.41,0-1.61.49-1.61.85,0,.67,1.02,1.14,3.31,1.14s3.24-.49,3.24-1.18Zm-6.1-8c0,.9.74,1.45,2.31,1.45s2.31-.61,2.31-1.45c0-.88-.76-1.45-2.31-1.45s-2.31.65-2.31,1.45Z"/><path d="m59.17,5.86h3.29l-.06,2.91h.06c.52-1.67,1.78-3.11,4.18-3.11,3.03,0,3.99,1.83,3.99,4.36,0,.86-.05,1.69-.09,2.08h-3.05c.02-.22.04-.63.04-1.02,0-1.69-.46-2.61-2.05-2.61-2.11,0-3.01,1.77-3.01,3.52v3.93h-3.29V5.86Z"/><path d="m83.68,11.64h-8.78c.17,1.26.91,2.2,3.11,2.2,2.02,0,2.63-.55,2.76-1.24h2.92c-.09,1.93-1.63,3.52-5.68,3.52-4.96,0-6.44-2.58-6.44-5.13,0-3.28,2.26-5.33,6.25-5.33s5.86,1.87,5.86,5.15v.83Zm-2.92-1.95c0-.92-.63-1.75-2.76-1.75-1.92,0-2.76.65-3.03,1.83h5.79v-.08Z"/><path d="m84.69,12.58h3.11c.02.65.26,1.26,2.53,1.26s2.64-.41,2.64-1.02c0-.31-.17-.57-.76-.65-.7-.1-1.78-.1-2.77-.16-1.79-.08-3.09-.31-3.77-.75-.68-.45-.98-1.2-.98-2.06,0-2.12,1.98-3.54,5.64-3.54,4.38,0,5.38,1.65,5.38,3.6h-3.11c-.02-.73-.33-1.32-2.18-1.32s-2.44.41-2.44,1.04c0,.39.2.59.87.71.63.1,1.57.1,2.79.18,1.37.08,2.61.2,3.37.59.85.43,1.26,1.22,1.26,2.24,0,1.63-1.04,3.42-5.94,3.42s-5.64-2.01-5.64-3.54Z"/><path d="m98.22,12.01v-3.54h-1.68v-2.61h1.41c.48,0,.63-.26.7-.88l.17-1.4h2.7v2.28h4.7v2.61h-4.7v3.46c0,1.18.61,1.59,2.5,1.59.7,0,1.61-.1,2.11-.2v2.5c-.48.16-1.57.3-2.64.3-4.03,0-5.25-1.75-5.25-4.11Z"/></g></svg>